<svg version="1.1" id="Layer_1" xmlns="http://www.w3.org/2000/svg" xmlns:xlink="http://www.w3.org/1999/xlink" x="0px" y="0px"
	 width="100%" viewBox="0 0 1920 1080" enable-background="new 0 0 1920 1080" xml:space="preserve">
<path fill="#FFFFFF" opacity="1.000000" stroke="none" 
	d="
M525.000000,1081.000000 
	C350.368774,1081.000000 175.737564,1081.000000 1.053174,1081.000000 
	C1.053174,721.108521 1.053174,361.217041 1.053174,1.000000 
	C155.026718,1.000000 309.053650,1.000000 463.577148,1.467436 
	C464.073700,83.318054 464.073700,164.701233 464.073700,246.605606 
	C484.957794,246.605606 505.239410,246.649445 525.519226,246.474838 
	C526.522461,246.466217 527.509338,244.554672 528.487061,243.462158 
	C528.470337,243.395096 528.431335,243.262466 528.667358,242.985550 
	C529.852722,239.569855 530.598267,236.351669 531.785400,233.305557 
	C538.185364,216.883286 544.694885,200.503677 551.102356,184.073822 
	C551.038025,184.038284 551.127563,184.154785 551.401794,183.947876 
	C555.622620,176.428085 559.569214,169.115189 563.550049,161.681824 
	C563.584290,161.561371 563.757935,161.380829 563.968384,161.156891 
	C575.191040,146.347015 586.203369,131.761078 597.134766,117.104523 
	C597.053894,117.033905 597.178284,117.208923 597.477783,117.082367 
	C598.931580,115.665840 600.085938,114.375854 601.448242,113.034393 
	C601.938843,112.844772 602.097046,112.619301 602.446899,112.183212 
	C604.859131,110.050972 606.955139,108.042038 609.025635,106.016708 
	C609.000000,106.000313 609.033081,106.051201 609.346802,105.930351 
	C611.399292,104.281456 613.123779,102.736771 614.879028,101.227989 
	C628.734863,89.318062 644.339905,80.064171 660.325806,71.309982 
	C660.358643,71.280167 660.333313,71.365349 660.685669,71.296722 
	C665.075073,69.190384 669.112183,67.152664 673.091492,65.084808 
	C673.033691,65.054680 673.102539,65.165375 673.492188,65.152771 
	C675.924561,64.469597 678.003052,63.891151 680.004761,63.114853 
	C717.340027,48.635620 756.274475,42.915119 796.066040,42.111423 
	C811.884827,41.791912 827.713623,41.953964 843.537903,41.926125 
	C858.529053,41.899754 873.520386,41.871613 888.510925,41.962727 
	C890.200867,41.972996 893.654114,40.760143 891.505066,44.982407 
	C878.376160,44.980373 865.709839,45.154903 853.054810,44.855026 
	C849.438660,44.769344 848.260376,46.115757 847.291565,49.236946 
	C831.260559,100.881050 815.144226,152.498703 799.010010,204.110733 
	C752.981812,351.351562 706.946411,498.590210 660.895142,645.823792 
	C629.000671,747.795410 597.049194,849.749207 565.175659,951.727417 
	C551.714233,994.796570 538.387756,1037.907837 525.000000,1081.000000 
z"/>
<path fill="#FFFFFF" opacity="1.000000" stroke="none" 
	d="
M1490.000000,1.000003 
	C1633.636597,1.000000 1777.273071,1.000000 1920.954834,1.000000 
	C1920.954834,360.894501 1920.954834,720.789001 1920.954834,1081.000000 
	C1757.306641,1081.000000 1593.613037,1081.000000 1429.789795,1080.701660 
	C1402.770630,994.110107 1375.890259,907.814026 1348.989014,821.524597 
	C1314.715942,711.588867 1280.411133,601.663147 1246.146973,491.724670 
	C1206.710815,365.190674 1167.308350,238.646194 1127.881226,112.109428 
	C1120.924194,89.781708 1113.918335,67.469185 1106.838501,44.841175 
	C1091.894531,44.841175 1077.079102,44.841175 1062.250122,44.509480 
	C1062.181885,43.518764 1062.127441,42.859745 1062.394287,42.108246 
	C1063.145508,41.902363 1063.575439,41.788963 1064.464111,41.772816 
	C1091.382935,41.881454 1117.843994,42.031181 1144.303101,41.867905 
	C1174.832764,41.679508 1205.150879,43.827827 1234.829102,51.177109 
	C1250.392578,55.031101 1265.574951,60.423836 1280.952026,65.070969 
	C1280.974609,65.020264 1280.883667,65.083900 1281.095337,65.364151 
	C1292.932495,71.609879 1304.557861,77.575356 1316.299927,83.562149 
	C1316.416626,83.583466 1316.541504,83.785255 1316.697998,84.063766 
	C1318.911987,85.679787 1321.058228,86.899681 1323.010986,88.375694 
	C1330.343628,93.918625 1337.613037,99.545135 1344.939453,105.087135 
	C1344.972534,105.033966 1344.863647,105.096016 1344.999634,105.403641 
	C1350.741089,111.162949 1356.346680,116.614624 1361.977051,122.036331 
	C1362.001953,122.006348 1361.935181,122.045982 1362.054443,122.359879 
	C1364.196899,124.935181 1366.220093,127.196602 1368.345093,129.509171 
	C1368.446899,129.560318 1368.502930,129.781281 1368.643311,130.060165 
	C1371.702881,134.113602 1374.885742,137.715622 1377.490479,141.695786 
	C1384.714722,152.734787 1391.698486,163.931213 1398.822021,175.361496 
	C1399.201538,176.125763 1399.536377,176.593994 1399.879639,177.430267 
	C1400.758789,179.562897 1401.752808,181.278107 1402.480591,183.099640 
	C1409.935913,201.756866 1417.348145,220.431320 1424.823242,239.421448 
	C1424.964233,240.164490 1425.054443,240.587067 1425.103271,241.272644 
	C1425.321655,241.754517 1425.581299,241.973404 1425.891479,242.100342 
	C1425.942017,242.008408 1425.806152,242.168365 1425.853027,242.584366 
	C1426.135620,246.033691 1427.943726,246.565765 1430.692139,246.543564 
	C1445.516113,246.423843 1460.341431,246.485046 1475.166382,246.484055 
	C1480.132935,246.483719 1485.099609,246.484009 1490.741821,246.484009 
	C1490.741821,244.383667 1490.741943,242.769485 1490.741821,241.155319 
	C1490.732178,163.199448 1490.728149,85.243576 1490.682983,7.287724 
	C1490.681763,5.191686 1490.237549,3.095906 1490.000000,1.000003 
z"/>
<path fill="#040404" opacity="1.000000" stroke="none" 
	d="
M1062.263794,44.841175 
	C1077.079102,44.841175 1091.894531,44.841175 1106.838501,44.841175 
	C1113.918335,67.469185 1120.924194,89.781708 1127.881226,112.109428 
	C1167.308350,238.646194 1206.710815,365.190674 1246.146973,491.724670 
	C1280.411133,601.663147 1314.715942,711.588867 1348.989014,821.524597 
	C1375.890259,907.814026 1402.770630,994.110107 1429.330078,1080.701660 
	C1344.979126,1081.000000 1260.958130,1081.000000 1176.451904,1080.614258 
	C1158.980957,1024.088989 1141.929199,967.969482 1125.130005,911.774353 
	C1123.721313,907.061951 1122.083740,905.221069 1116.833008,905.333679 
	C1098.710083,905.722290 1080.572998,905.454407 1061.947266,905.379456 
	C1060.126221,905.234131 1058.799438,905.068848 1057.472534,905.068665 
	C1004.381897,905.060791 951.291199,905.058472 898.200623,905.113586 
	C896.426819,905.115417 894.653687,905.716492 892.508423,905.876221 
	C870.342468,905.642273 848.544556,905.767273 826.757141,905.346558 
	C821.881287,905.252441 820.333740,906.963806 819.083862,911.253723 
	C804.987244,959.637085 790.662842,1007.954102 776.492859,1056.316284 
	C774.101624,1064.477661 772.153076,1072.768799 770.000000,1081.000000 
	C688.645752,1081.000000 607.291565,1081.000000 525.468628,1081.000000 
	C538.387756,1037.907837 551.714233,994.796570 565.175659,951.727417 
	C597.049194,849.749207 629.000671,747.795410 660.895142,645.823792 
	C706.946411,498.590210 752.981812,351.351562 799.010010,204.110733 
	C815.144226,152.498703 831.260559,100.881050 847.291565,49.236946 
	C848.260376,46.115757 849.438660,44.769344 853.054810,44.855026 
	C865.709839,45.154903 878.376160,44.980373 891.973022,45.038319 
	C903.897705,45.064377 914.887512,45.028381 925.877380,45.013641 
	C971.339539,44.952652 1016.801636,44.898094 1062.263794,44.841175 
M959.218506,438.762268 
	C936.181580,516.864075 913.144714,594.965820 890.153748,672.911743 
	C944.885742,672.911743 999.145325,672.911743 1053.995483,672.911743 
	C1026.915771,580.027344 1000.057861,487.904053 973.200012,395.780731 
	C972.779419,395.848175 972.358765,395.915619 971.938171,395.983063 
	C967.799561,409.993744 963.660889,424.004425 959.218506,438.762268 
z"/>
<path fill="#681A80" opacity="1.000000" stroke="none" 
	d="
M1064.005371,41.675568 
	C1063.575439,41.788963 1063.145508,41.902363 1062.195068,41.818863 
	C1058.180908,42.082829 1054.688232,42.938110 1051.193848,42.944901 
	C1005.084961,43.034500 958.975708,43.031376 912.866760,42.978008 
	C905.291931,42.969242 897.590881,44.020634 890.350525,40.390083 
	C888.856323,39.640812 886.756592,39.996922 884.937378,40.012905 
	C849.023987,40.328438 813.104736,40.384159 777.201111,41.161148 
	C764.875183,41.427891 752.568970,43.349648 740.293762,44.843845 
	C735.460754,45.432144 730.729126,46.884644 725.965149,48.002480 
	C716.256653,50.280510 706.532349,52.499046 696.865173,54.942318 
	C692.088257,56.149647 687.286499,57.472397 682.753113,59.360291 
	C679.324951,60.787933 676.304443,63.194466 673.102539,65.165359 
	C673.102539,65.165375 673.033691,65.054680 672.675537,65.046837 
	C668.556152,66.264252 664.764282,67.408897 661.069824,68.810410 
	C660.572815,68.998978 660.566711,70.481819 660.333313,71.365349 
	C660.333313,71.365349 660.358643,71.280167 659.895325,71.203445 
	C656.810913,71.832314 653.947388,72.088661 651.622437,73.343140 
	C647.596558,75.515419 643.921631,78.332748 640.068481,80.831779 
	C633.046936,85.385811 625.946228,89.820892 618.999878,94.486305 
	C616.716858,96.019684 615.071289,98.663933 612.662903,99.807961 
	C609.701538,101.214645 608.732483,103.088524 609.033081,106.051201 
	C609.033081,106.051201 609.000000,106.000313 608.622681,106.003471 
	C604.158386,106.118057 601.333984,107.454926 602.130737,112.306503 
	C602.097046,112.619301 601.938843,112.844772 601.028076,113.008247 
	C597.023438,112.648712 596.735779,114.647125 597.178284,117.208923 
	C597.178284,117.208923 597.053894,117.033905 596.747864,117.053474 
	C595.428772,117.502190 594.116516,117.663841 593.453186,118.405685 
	C590.181763,122.064255 587.124329,125.912910 583.913025,129.626724 
	C578.167664,136.271103 571.679688,142.349213 568.430420,150.843826 
	C567.991699,151.990723 566.278503,152.650024 565.839478,153.796936 
	C564.906860,156.233505 564.424744,158.842499 563.757935,161.380829 
	C563.757935,161.380829 563.584290,161.561371 563.211182,161.465424 
	C562.357605,161.401062 561.580933,161.254654 561.439453,161.490036 
	C557.137024,168.647720 551.505371,175.213135 551.127563,184.154785 
	C551.127563,184.154785 551.038025,184.038284 550.735107,184.070328 
	C549.210205,185.351913 547.621521,186.406860 546.835632,187.887833 
	C544.558838,192.178101 542.301514,196.525101 540.589661,201.058655 
	C537.460876,209.344681 534.454956,217.699066 531.930115,226.183350 
	C530.278870,231.732071 529.565063,237.559738 528.431335,243.262466 
	C528.431335,243.262466 528.470337,243.395096 528.072266,243.306427 
	C518.548767,243.812241 509.428253,244.776215 500.296417,244.899048 
	C490.846161,245.026138 481.380493,244.010574 471.930359,244.139725 
	C467.052551,244.206406 465.881561,242.725449 465.890381,237.975204 
	C466.037354,158.983673 465.997864,79.991798 466.000000,1.000000 
	C806.690735,1.000000 1147.381470,1.000000 1488.536621,1.468657 
	C1489.001099,79.909424 1489.004395,157.881546 1488.983398,235.853653 
	C1488.982788,237.835205 1489.200195,240.040131 1488.422119,241.729034 
	C1487.775024,243.133713 1485.827026,244.834518 1484.428589,244.858643 
	C1470.937500,245.091354 1457.421387,245.413544 1443.955078,244.789642 
	C1438.610840,244.542023 1432.709717,245.804810 1427.763794,242.173065 
	C1427.338989,241.861206 1426.469238,242.155609 1425.806152,242.168365 
	C1425.806152,242.168365 1425.942017,242.008408 1425.866211,241.858734 
	C1425.668823,241.389404 1425.453735,241.156265 1425.144775,241.009644 
	C1425.054443,240.587067 1424.964233,240.164490 1425.133545,239.195648 
	C1425.235596,236.586090 1425.496094,234.379822 1424.848022,232.484253 
	C1422.045288,224.287567 1418.928223,216.199051 1416.023560,208.036331 
	C1414.312378,203.227402 1413.155273,198.186905 1411.076172,193.552444 
	C1408.709717,188.277252 1405.662598,183.297913 1402.726685,178.298340 
	C1402.302734,177.576309 1400.848511,177.459244 1399.871094,177.062225 
	C1399.536377,176.593994 1399.201538,176.125763 1399.126465,175.159119 
	C1399.268799,173.294739 1399.597900,171.660034 1398.962769,170.606079 
	C1394.575317,163.323914 1389.921021,156.202896 1385.505737,148.936935 
	C1384.279785,146.919510 1383.919922,144.333298 1382.550049,142.454910 
	C1379.985840,138.939255 1377.156982,135.565048 1374.065430,132.509201 
	C1372.672974,131.132782 1370.384766,130.662613 1368.502930,129.781281 
	C1368.502930,129.781281 1368.446899,129.560318 1368.545654,129.159119 
	C1368.124023,124.805191 1366.561401,121.894409 1361.935181,122.045982 
	C1361.935181,122.045982 1362.001953,122.006348 1361.991211,121.659767 
	C1358.921753,114.064247 1352.720947,109.746132 1346.822388,105.167664 
	C1346.403442,104.842415 1345.527222,105.106133 1344.863647,105.096024 
	C1344.863647,105.096016 1344.972534,105.033966 1344.968506,104.706299 
	C1344.034424,102.933434 1343.318115,101.271591 1342.124390,100.093246 
	C1340.280640,98.273277 1338.182373,96.682961 1336.064697,95.174034 
	C1330.368774,91.115501 1324.627563,87.118729 1318.824219,83.216614 
	C1318.387939,82.923294 1317.317261,83.573601 1316.541504,83.785248 
	C1316.541504,83.785255 1316.416626,83.583466 1316.504028,83.228577 
	C1316.366089,82.329178 1316.297607,81.520531 1315.891846,81.279579 
	C1309.187500,77.297920 1302.633911,72.988014 1295.634644,69.603531 
	C1291.058960,67.391006 1285.823608,66.543076 1280.883667,65.083900 
	C1280.883667,65.083900 1280.974609,65.020264 1280.966309,64.678886 
	C1280.216675,63.366322 1279.666504,61.852470 1278.702759,61.513119 
	C1272.980347,59.498413 1267.197388,57.632896 1261.366577,55.954575 
	C1254.989990,54.119175 1248.526489,52.587482 1242.124023,50.838562 
	C1235.388794,48.998676 1228.767212,46.620499 1221.938599,45.276924 
	C1214.085083,43.731693 1206.083374,42.786343 1198.101929,42.081291 
	C1187.400391,41.135979 1176.660522,40.176361 1165.930176,40.092369 
	C1133.332764,39.837223 1100.732056,39.979813 1068.132935,40.071293 
	C1066.755615,40.075157 1065.381104,41.117188 1064.005371,41.675568 
z"/>
<path fill="#681A80" opacity="1.000000" stroke="none" 
	d="
M1146.000000,1081.000000 
	C1033.644653,1081.000000 921.289307,1081.000000 808.466980,1080.531372 
	C808.000000,1069.068115 808.224609,1058.066895 807.898132,1047.082031 
	C807.751160,1042.135132 809.536987,1040.867554 814.241516,1040.906250 
	C837.894714,1041.101074 861.550415,1040.997803 885.205200,1040.993652 
	C893.888367,1040.992065 893.959778,1040.917114 894.153687,1032.315674 
	C894.433105,1019.919922 894.891052,1007.524963 894.950256,995.128174 
	C895.074219,969.141846 895.023926,943.154419 894.969727,917.167603 
	C894.948486,907.008240 894.856018,907.004517 905.030334,907.004333 
	C953.672546,907.003296 1002.314819,907.004272 1050.957031,907.006104 
	C1052.289551,907.006165 1053.631470,906.926697 1054.952881,907.053101 
	C1058.319336,907.375061 1060.154907,908.630554 1060.099976,912.677856 
	C1059.865479,929.999329 1060.000122,947.325745 1060.000000,964.650391 
	C1059.999878,987.305725 1059.976074,1009.961060 1060.013062,1032.616333 
	C1060.025269,1040.098877 1060.988647,1041.001831 1068.241455,1041.001587 
	C1092.062866,1041.000977 1115.885620,1041.145752 1139.704346,1040.893311 
	C1144.901611,1040.838257 1146.250122,1042.590942 1146.109253,1047.519653 
	C1145.790283,1058.671631 1146.003296,1069.838989 1146.000000,1081.000000 
z"/>
<path fill="#FEFDFE" opacity="1.000000" stroke="none" 
	d="
M770.468628,1081.000000 
	C772.153076,1072.768799 774.101624,1064.477661 776.492859,1056.316284 
	C790.662842,1007.954102 804.987244,959.637085 819.083862,911.253723 
	C820.333740,906.963806 821.881287,905.252441 826.757141,905.346558 
	C848.544556,905.767273 870.342468,905.642273 892.447632,906.340454 
	C892.758728,950.893250 892.758728,994.819824 892.758728,1039.190430 
	C863.572021,1039.190430 835.153381,1039.190430 806.357483,1039.190430 
	C806.357483,1041.772095 806.375244,1043.910400 806.354553,1046.048584 
	C806.241577,1057.699097 806.119202,1069.349487 806.000000,1081.000000 
	C794.312439,1081.000000 782.624878,1081.000000 770.468628,1081.000000 
z"/>
<path fill="#FEFDFE" opacity="1.000000" stroke="none" 
	d="
M1062.441406,905.436523 
	C1080.572998,905.454407 1098.710083,905.722290 1116.833008,905.333679 
	C1122.083740,905.221069 1123.721313,907.061951 1125.130005,911.774353 
	C1141.929199,967.969482 1158.980957,1024.088989 1175.983398,1080.614258 
	C1166.979126,1081.000000 1157.958130,1081.000000 1148.585205,1080.543457 
	C1148.233276,1066.515015 1148.233276,1052.942993 1148.233276,1038.760986 
	C1119.202393,1038.760986 1090.715942,1038.760986 1062.132446,1038.760986 
	C1062.132446,994.564026 1062.131104,950.984497 1062.145386,907.404968 
	C1062.145508,906.748840 1062.338379,906.092651 1062.441406,905.436523 
z"/>
<path fill="#572568" opacity="1.000000" stroke="none" 
	d="
M1061.947266,905.379456 
	C1062.338379,906.092651 1062.145508,906.748840 1062.145386,907.404968 
	C1062.131104,950.984497 1062.132446,994.564026 1062.132446,1038.760986 
	C1090.715942,1038.760986 1119.202393,1038.760986 1148.233276,1038.760986 
	C1148.233276,1052.942993 1148.233276,1066.515015 1148.116699,1080.543457 
	C1147.555542,1081.000000 1147.111084,1081.000000 1146.333252,1081.000000 
	C1146.003296,1069.838989 1145.790283,1058.671631 1146.109253,1047.519653 
	C1146.250122,1042.590942 1144.901611,1040.838257 1139.704346,1040.893311 
	C1115.885620,1041.145752 1092.062866,1041.000977 1068.241455,1041.001587 
	C1060.988647,1041.001831 1060.025269,1040.098877 1060.013062,1032.616333 
	C1059.976074,1009.961060 1059.999878,987.305725 1060.000000,964.650391 
	C1060.000122,947.325745 1059.865479,929.999329 1060.099976,912.677856 
	C1060.154907,908.630554 1058.319336,907.375061 1054.952881,907.053101 
	C1053.631470,906.926697 1052.289551,907.006165 1050.957031,907.006104 
	C1002.314819,907.004272 953.672546,907.003296 905.030334,907.004333 
	C894.856018,907.004517 894.948486,907.008240 894.969727,917.167603 
	C895.023926,943.154419 895.074219,969.141846 894.950256,995.128174 
	C894.891052,1007.524963 894.433105,1019.919922 894.153687,1032.315674 
	C893.959778,1040.917114 893.888367,1040.992065 885.205200,1040.993652 
	C861.550415,1040.997803 837.894714,1041.101074 814.241516,1040.906250 
	C809.536987,1040.867554 807.751160,1042.135132 807.898132,1047.082031 
	C808.224609,1058.066895 808.000000,1069.068115 808.000000,1080.531372 
	C807.555542,1081.000000 807.111084,1081.000000 806.333374,1081.000000 
	C806.119202,1069.349487 806.241577,1057.699097 806.354553,1046.048584 
	C806.375244,1043.910400 806.357483,1041.772095 806.357483,1039.190430 
	C835.153381,1039.190430 863.572021,1039.190430 892.758728,1039.190430 
	C892.758728,994.819824 892.758728,950.893250 892.819458,906.502441 
	C894.653687,905.716492 896.426819,905.115417 898.200623,905.113586 
	C951.291199,905.058472 1004.381897,905.060791 1057.472534,905.068665 
	C1058.799438,905.068848 1060.126221,905.234131 1061.947266,905.379456 
z"/>
<path fill="#653273" opacity="1.000000" stroke="none" 
	d="
M465.666687,1.000000 
	C465.997864,79.991798 466.037354,158.983673 465.890381,237.975204 
	C465.881561,242.725449 467.052551,244.206406 471.930359,244.139725 
	C481.380493,244.010574 490.846161,245.026138 500.296417,244.899048 
	C509.428253,244.776215 518.548767,243.812241 528.089050,243.373474 
	C527.509338,244.554672 526.522461,246.466217 525.519226,246.474838 
	C505.239410,246.649445 484.957794,246.605606 464.073700,246.605606 
	C464.073700,164.701233 464.073700,83.318054 464.036865,1.467436 
	C464.444458,1.000000 464.888885,1.000000 465.666687,1.000000 
z"/>
<path fill="#653273" opacity="1.000000" stroke="none" 
	d="
M1425.853027,242.584366 
	C1426.469238,242.155609 1427.338989,241.861206 1427.763794,242.173065 
	C1432.709717,245.804810 1438.610840,244.542023 1443.955078,244.789642 
	C1457.421387,245.413544 1470.937500,245.091354 1484.428589,244.858643 
	C1485.827026,244.834518 1487.775024,243.133713 1488.422119,241.729034 
	C1489.200195,240.040131 1488.982788,237.835205 1488.983398,235.853653 
	C1489.004395,157.881546 1489.001099,79.909424 1489.000488,1.468657 
	C1489.000000,1.000000 1489.500000,1.000000 1489.750000,1.000003 
	C1490.237549,3.095906 1490.681763,5.191686 1490.682983,7.287724 
	C1490.728149,85.243576 1490.732178,163.199448 1490.741821,241.155319 
	C1490.741943,242.769485 1490.741821,244.383667 1490.741821,246.484009 
	C1485.099609,246.484009 1480.132935,246.483719 1475.166382,246.484055 
	C1460.341431,246.485046 1445.516113,246.423843 1430.692139,246.543564 
	C1427.943726,246.565765 1426.135620,246.033691 1425.853027,242.584366 
z"/>
<path fill="#653273" opacity="1.000000" stroke="none" 
	d="
M673.492188,65.152756 
	C676.304443,63.194466 679.324951,60.787933 682.753113,59.360291 
	C687.286499,57.472397 692.088257,56.149647 696.865173,54.942318 
	C706.532349,52.499046 716.256653,50.280510 725.965149,48.002480 
	C730.729126,46.884644 735.460754,45.432144 740.293762,44.843845 
	C752.568970,43.349648 764.875183,41.427891 777.201111,41.161148 
	C813.104736,40.384159 849.023987,40.328438 884.937378,40.012905 
	C886.756592,39.996922 888.856323,39.640812 890.350525,40.390083 
	C897.590881,44.020634 905.291931,42.969242 912.866760,42.978008 
	C958.975708,43.031376 1005.084961,43.034500 1051.193848,42.944901 
	C1054.688232,42.938110 1058.180908,42.082829 1061.873779,41.911346 
	C1062.127441,42.859745 1062.181885,43.518764 1062.250122,44.509480 
	C1016.801636,44.898094 971.339539,44.952652 925.877380,45.013641 
	C914.887512,45.028381 903.897705,45.064377 892.439941,45.034683 
	C893.654114,40.760143 890.200867,41.972996 888.510925,41.962727 
	C873.520386,41.871613 858.529053,41.899754 843.537903,41.926125 
	C827.713623,41.953964 811.884827,41.791912 796.066040,42.111423 
	C756.274475,42.915119 717.340027,48.635620 680.004761,63.114853 
	C678.003052,63.891151 675.924561,64.469597 673.492188,65.152756 
z"/>
<path fill="#653273" opacity="1.000000" stroke="none" 
	d="
M609.346802,105.930351 
	C608.732483,103.088524 609.701538,101.214645 612.662903,99.807961 
	C615.071289,98.663933 616.716858,96.019684 618.999878,94.486305 
	C625.946228,89.820892 633.046936,85.385811 640.068481,80.831779 
	C643.921631,78.332748 647.596558,75.515419 651.622437,73.343140 
	C653.947388,72.088661 656.810913,71.832314 659.862427,71.233261 
	C644.339905,80.064171 628.734863,89.318062 614.879028,101.227989 
	C613.123779,102.736771 611.399292,104.281456 609.346802,105.930351 
z"/>
<path fill="#653273" opacity="1.000000" stroke="none" 
	d="
M528.667358,242.985550 
	C529.565063,237.559738 530.278870,231.732071 531.930115,226.183350 
	C534.454956,217.699066 537.460876,209.344681 540.589661,201.058655 
	C542.301514,196.525101 544.558838,192.178101 546.835632,187.887833 
	C547.621521,186.406860 549.210205,185.351913 550.799438,184.105865 
	C544.694885,200.503677 538.185364,216.883286 531.785400,233.305557 
	C530.598267,236.351669 529.852722,239.569855 528.667358,242.985550 
z"/>
<path fill="#653273" opacity="1.000000" stroke="none" 
	d="
M563.968384,161.156891 
	C564.424744,158.842499 564.906860,156.233505 565.839478,153.796936 
	C566.278503,152.650024 567.991699,151.990723 568.430420,150.843826 
	C571.679688,142.349213 578.167664,136.271103 583.913025,129.626724 
	C587.124329,125.912910 590.181763,122.064255 593.453186,118.405685 
	C594.116516,117.663841 595.428772,117.502190 596.828735,117.124084 
	C586.203369,131.761078 575.191040,146.347015 563.968384,161.156891 
z"/>
<path fill="#653273" opacity="1.000000" stroke="none" 
	d="
M551.401794,183.947876 
	C551.505371,175.213135 557.137024,168.647720 561.439453,161.490036 
	C561.580933,161.254654 562.357605,161.401062 563.177002,161.585892 
	C559.569214,169.115189 555.622620,176.428085 551.401794,183.947876 
z"/>
<path fill="#653273" opacity="1.000000" stroke="none" 
	d="
M660.685669,71.296722 
	C660.566711,70.481819 660.572815,68.998978 661.069824,68.810410 
	C664.764282,67.408897 668.556152,66.264252 672.733398,65.076965 
	C669.112183,67.152664 665.075073,69.190384 660.685669,71.296722 
z"/>
<path fill="#653273" opacity="1.000000" stroke="none" 
	d="
M602.446899,112.183212 
	C601.333984,107.454926 604.158386,106.118057 608.648315,106.019867 
	C606.955139,108.042038 604.859131,110.050972 602.446899,112.183212 
z"/>
<path fill="#653273" opacity="1.000000" stroke="none" 
	d="
M597.477783,117.082367 
	C596.735779,114.647125 597.023438,112.648712 600.820068,113.059723 
	C600.085938,114.375854 598.931580,115.665840 597.477783,117.082367 
z"/>
<path fill="#653273" opacity="1.000000" stroke="none" 
	d="
M1064.464111,41.772820 
	C1065.381104,41.117188 1066.755615,40.075157 1068.132935,40.071293 
	C1100.732056,39.979813 1133.332764,39.837223 1165.930176,40.092369 
	C1176.660522,40.176361 1187.400391,41.135979 1198.101929,42.081291 
	C1206.083374,42.786343 1214.085083,43.731693 1221.938599,45.276924 
	C1228.767212,46.620499 1235.388794,48.998676 1242.124023,50.838562 
	C1248.526489,52.587482 1254.989990,54.119175 1261.366577,55.954575 
	C1267.197388,57.632896 1272.980347,59.498413 1278.702759,61.513119 
	C1279.666504,61.852470 1280.216675,63.366322 1280.943726,64.729599 
	C1265.574951,60.423836 1250.392578,55.031101 1234.829102,51.177109 
	C1205.150879,43.827827 1174.832764,41.679508 1144.303101,41.867905 
	C1117.843994,42.031181 1091.382935,41.881454 1064.464111,41.772820 
z"/>
<path fill="#653273" opacity="1.000000" stroke="none" 
	d="
M1399.879639,177.430283 
	C1400.848511,177.459244 1402.302734,177.576309 1402.726685,178.298340 
	C1405.662598,183.297913 1408.709717,188.277252 1411.076172,193.552444 
	C1413.155273,198.186905 1414.312378,203.227402 1416.023560,208.036331 
	C1418.928223,216.199051 1422.045288,224.287567 1424.848022,232.484253 
	C1425.496094,234.379822 1425.235596,236.586090 1425.082764,238.875183 
	C1417.348145,220.431320 1409.935913,201.756866 1402.480591,183.099640 
	C1401.752808,181.278107 1400.758789,179.562897 1399.879639,177.430283 
z"/>
<path fill="#653273" opacity="1.000000" stroke="none" 
	d="
M1368.643311,130.060165 
	C1370.384766,130.662613 1372.672974,131.132782 1374.065430,132.509201 
	C1377.156982,135.565048 1379.985840,138.939255 1382.550049,142.454910 
	C1383.919922,144.333298 1384.279785,146.919510 1385.505737,148.936935 
	C1389.921021,156.202896 1394.575317,163.323914 1398.962769,170.606079 
	C1399.597900,171.660034 1399.268799,173.294739 1399.081543,174.863068 
	C1391.698486,163.931213 1384.714722,152.734787 1377.490479,141.695786 
	C1374.885742,137.715622 1371.702881,134.113602 1368.643311,130.060165 
z"/>
<path fill="#653273" opacity="1.000000" stroke="none" 
	d="
M1316.697998,84.063766 
	C1317.317261,83.573601 1318.387939,82.923294 1318.824219,83.216614 
	C1324.627563,87.118729 1330.368774,91.115501 1336.064697,95.174034 
	C1338.182373,96.682961 1340.280640,98.273277 1342.124390,100.093246 
	C1343.318115,101.271591 1344.034424,102.933434 1344.935425,104.759460 
	C1337.613037,99.545135 1330.343628,93.918625 1323.010986,88.375694 
	C1321.058228,86.899681 1318.911987,85.679787 1316.697998,84.063766 
z"/>
<path fill="#653273" opacity="1.000000" stroke="none" 
	d="
M1281.095337,65.364151 
	C1285.823608,66.543076 1291.058960,67.391006 1295.634644,69.603531 
	C1302.633911,72.988014 1309.187500,77.297920 1315.891846,81.279579 
	C1316.297607,81.520531 1316.366089,82.329178 1316.387329,83.207268 
	C1304.557861,77.575356 1292.932495,71.609879 1281.095337,65.364151 
z"/>
<path fill="#653273" opacity="1.000000" stroke="none" 
	d="
M1344.999634,105.403648 
	C1345.527222,105.106133 1346.403442,104.842415 1346.822388,105.167664 
	C1352.720947,109.746132 1358.921753,114.064247 1361.966309,121.689743 
	C1356.346680,116.614624 1350.741089,111.162949 1344.999634,105.403648 
z"/>
<path fill="#653273" opacity="1.000000" stroke="none" 
	d="
M1362.054443,122.359879 
	C1366.561401,121.894409 1368.124023,124.805191 1368.443848,129.107971 
	C1366.220093,127.196602 1364.196899,124.935181 1362.054443,122.359879 
z"/>
<path fill="#653273" opacity="1.000000" stroke="none" 
	d="
M1425.103394,241.272629 
	C1425.453735,241.156265 1425.668823,241.389404 1425.815674,241.950653 
	C1425.581299,241.973404 1425.321655,241.754517 1425.103394,241.272629 
z"/>
<path fill="#671A7E" opacity="1.000000" stroke="none" 
	d="
M959.370361,438.388672 
	C963.660889,424.004425 967.799561,409.993744 971.938171,395.983063 
	C972.358765,395.915619 972.779419,395.848175 973.200012,395.780731 
	C1000.057861,487.904053 1026.915771,580.027344 1053.995483,672.911743 
	C999.145325,672.911743 944.885742,672.911743 890.153748,672.911743 
	C913.144714,594.965820 936.181580,516.864075 959.370361,438.388672 
z"/>
</svg>